<?xml version="1.0" encoding="UTF-8"?>
<svg viewBox="0 0 512 512" xmlns="http://www.w3.org/2000/svg">
  <defs>
    <linearGradient id="bg" x1="0" y1="0" x2="0" y2="1">
      <stop offset="0" stop-color="#122440"/>
      <stop offset="1" stop-color="#0A1628"/>
    </linearGradient>
    <radialGradient id="halo" cx="0.5" cy="0.5" r="0.5">
      <stop offset="0" stop-color="#FFD27F" stop-opacity="0.8"/>
      <stop offset="1" stop-color="#FFD27F" stop-opacity="0"/>
    </radialGradient>
    <radialGradient id="wglow" cx="0.5" cy="0.5" r="0.5">
      <stop offset="0" stop-color="#88D7E8" stop-opacity="0.5"/>
      <stop offset="1" stop-color="#88D7E8" stop-opacity="0"/>
    </radialGradient>
  </defs>
  <rect width="512" height="512" rx="96" fill="url(#bg)"/>
  <circle cx="256" cy="220" r="180" fill="url(#wglow)"/>
  <g fill="#1A2640">
    <rect x="32" y="360" width="56" height="120"/><rect x="88" y="320" width="48" height="160"/>
    <rect x="136" y="290" width="64" height="190"/><rect x="200" y="270" width="56" height="210"/>
    <rect x="256" y="270" width="56" height="210"/><rect x="312" y="290" width="64" height="190"/>
    <rect x="376" y="320" width="48" height="160"/><rect x="424" y="360" width="56" height="120"/>
  </g>
  <g fill="#FFD27F">
    <rect x="44" y="390" width="6" height="6"/><rect x="100" y="340" width="6" height="6"/>
    <rect x="158" y="390" width="6" height="6"/><rect x="220" y="370" width="6" height="6"/>
    <rect x="276" y="370" width="6" height="6"/><rect x="324" y="310" width="6" height="6"/>
    <rect x="388" y="340" width="6" height="6"/><rect x="438" y="390" width="6" height="6"/>
  </g>
  <g fill="#FFFFFF" opacity="0.95">
    <path d="M256 200 Q 130 170 100 250 Q 150 220 220 240 Q 230 220 256 220 Z"/>
    <path d="M256 200 Q 382 170 412 250 Q 362 220 292 240 Q 282 220 256 220 Z"/>
  </g>
  <g fill="#88D7E8" opacity="0.65">
    <circle cx="100" cy="248" r="14"/><circle cx="412" cy="248" r="14"/>
  </g>
  <circle cx="256" cy="150" r="28" fill="none" stroke="#FFD27F" stroke-width="6" opacity="0.85"/>
  <circle cx="256" cy="170" r="22" fill="#FFFFFF"/>
  <path d="M232 192 L280 192 L296 280 L216 280 Z" fill="#FFFFFF"/>
  <circle cx="256" cy="150" r="40" fill="url(#halo)"/>
</svg>
