<?xml version="1.0" encoding="UTF-8"?>
<svg viewBox="0 0 512 512" xmlns="http://www.w3.org/2000/svg">
  <defs>
    <linearGradient id="sky" x1="0" y1="0" x2="0" y2="1">
      <stop offset="0" stop-color="#050B1C"/>
      <stop offset="0.55" stop-color="#0A1A38"/>
      <stop offset="0.85" stop-color="#1A2D55"/>
      <stop offset="1" stop-color="#020610"/>
    </linearGradient>
    <radialGradient id="aura" cx="0.5" cy="0.38" r="0.55">
      <stop offset="0" stop-color="#FFE7A8" stop-opacity="0.65"/>
      <stop offset="0.45" stop-color="#FFE7A8" stop-opacity="0.18"/>
      <stop offset="1" stop-color="#FFE7A8" stop-opacity="0"/>
    </radialGradient>
    <linearGradient id="beam" x1="0.5" y1="0" x2="0.5" y2="1">
      <stop offset="0" stop-color="#FFE9B0" stop-opacity="0.62"/>
      <stop offset="0.75" stop-color="#FFE9B0" stop-opacity="0.16"/>
      <stop offset="1" stop-color="#FFE9B0" stop-opacity="0"/>
    </linearGradient>
    <linearGradient id="wingL" x1="1" y1="0" x2="0" y2="0.5">
      <stop offset="0" stop-color="#FBF7E6"/>
      <stop offset="0.65" stop-color="#E8F1F5"/>
      <stop offset="1" stop-color="#88D7E8"/>
    </linearGradient>
    <linearGradient id="wingR" x1="0" y1="0" x2="1" y2="0.5">
      <stop offset="0" stop-color="#FBF7E6"/>
      <stop offset="0.65" stop-color="#E8F1F5"/>
      <stop offset="1" stop-color="#88D7E8"/>
    </linearGradient>
    <linearGradient id="avenue" x1="0" y1="0" x2="0" y2="1">
      <stop offset="0" stop-color="#FFF2BE" stop-opacity="0.76"/>
      <stop offset="0.5" stop-color="#E1A952" stop-opacity="0.34"/>
      <stop offset="1" stop-color="#0A1628" stop-opacity="0"/>
    </linearGradient>
    <linearGradient id="wtc" x1="0" y1="0" x2="1" y2="1">
      <stop offset="0" stop-color="#314B73"/>
      <stop offset="0.56" stop-color="#13213D"/>
      <stop offset="1" stop-color="#07101F"/>
    </linearGradient>
  </defs>
  <rect width="512" height="512" rx="96" fill="url(#sky)"/>
  <circle cx="406" cy="118" r="20" fill="#FFE9B0" opacity="0.9"/>
  <circle cx="406" cy="118" r="58" fill="#FFE9B0" opacity="0.12"/>
  <g fill="#F6F2D8" opacity="0.9">
    <circle cx="56" cy="56" r="1.4"/><circle cx="120" cy="92" r="1"/><circle cx="168" cy="40" r="1.6"/>
    <circle cx="216" cy="76" r="1"/><circle cx="296" cy="48" r="1.4"/><circle cx="336" cy="88" r="1"/>
    <circle cx="400" cy="36" r="1.2"/><circle cx="440" cy="80" r="1"/><circle cx="76" cy="138" r="1"/>
    <circle cx="148" cy="156" r="1.2"/><circle cx="380" cy="144" r="1"/><circle cx="452" cy="116" r="1.4"/>
  </g>
  <path d="M162 190 C220 150 314 150 380 190" stroke="#FFE9B0" stroke-width="2" opacity="0.24" fill="none"/>
  <path d="M128 224 C214 168 318 172 434 218" stroke="#88D7E8" stroke-width="2" opacity="0.16" fill="none"/>
  <polygon points="214,196 298,192 388,468 128,468" fill="url(#beam)" opacity="0.72"/>
  <circle cx="258" cy="198" r="126" fill="url(#aura)"/>
  <g fill="#1E2A48" opacity="0.94">
    <rect x="16" y="348" width="28" height="90"/><rect x="44" y="360" width="22" height="78"/><rect x="66" y="330" width="36" height="108"/>
    <rect x="102" y="350" width="26" height="88"/><rect x="128" y="320" width="32" height="118"/><rect x="160" y="340" width="24" height="98"/>
    <rect x="184" y="326" width="30" height="112"/><rect x="218" y="344" width="28" height="94"/><rect x="246" y="318" width="32" height="120"/>
    <rect x="278" y="332" width="26" height="106"/><rect x="304" y="346" width="28" height="92"/><rect x="332" y="318" width="32" height="120"/>
    <rect x="364" y="336" width="24" height="102"/><rect x="388" y="322" width="30" height="116"/><rect x="418" y="348" width="26" height="90"/>
    <rect x="444" y="332" width="32" height="106"/><rect x="476" y="350" width="24" height="88"/>
  </g>
  <g fill="#0F1A33">
    <rect x="22" y="312" width="44" height="168"/><rect x="66" y="296" width="38" height="184"/><rect x="104" y="268" width="50" height="212"/>
    <rect x="154" y="256" width="44" height="224"/><rect x="198" y="240" width="52" height="240"/><rect x="250" y="224" width="56" height="256"/>
    <rect x="306" y="240" width="52" height="240"/><rect x="358" y="256" width="44" height="224"/><rect x="402" y="268" width="50" height="212"/>
    <rect x="452" y="296" width="38" height="184"/><rect x="276" y="208" width="4" height="20"/><rect x="222" y="226" width="3" height="16"/>
    <rect x="328" y="226" width="3" height="16"/>
  </g>
  <g opacity="0.98">
    <path d="M246 136 L288 160 L304 468 L224 468 L238 160Z" fill="url(#wtc)"/>
    <path d="M266 74 L272 138 L258 138Z" fill="#D7E8F0"/>
    <path d="M252 152 L286 170 L298 468 L232 468 L242 170Z" fill="#0B1730" opacity="0.38"/>
    <path d="M256 174h8M256 196h9M255 218h10M254 240h11M254 262h11M253 284h12M252 306h13M252 328h14M251 350h15M250 372h16M250 394h17M249 416h18" stroke="#FFD27F" stroke-width="3" opacity="0.58"/>
    <path d="M236 170 L220 468M292 170 L314 468" stroke="#88D7E8" stroke-width="1.2" opacity="0.2"/>
  </g>
  <g fill="#FFD27F">
    <rect x="30" y="330" width="4" height="4"/><rect x="48" y="356" width="4" height="4"/><rect x="78" y="315" width="4" height="4"/><rect x="118" y="288" width="4" height="4"/>
    <rect x="142" y="336" width="4" height="4"/><rect x="166" y="280" width="4" height="4"/><rect x="188" y="330" width="4" height="4"/><rect x="214" y="262" width="4" height="4"/>
    <rect x="238" y="314" width="4" height="4"/><rect x="270" y="244" width="4" height="4"/><rect x="294" y="326" width="4" height="4"/><rect x="318" y="260" width="4" height="4"/>
    <rect x="348" y="318" width="4" height="4"/><rect x="374" y="280" width="4" height="4"/><rect x="416" y="292" width="4" height="4"/><rect x="462" y="320" width="4" height="4"/>
    <rect x="58" y="390" width="4" height="4"/><rect x="92" y="372" width="4" height="4"/><rect x="130" y="404" width="4" height="4"/><rect x="176" y="386" width="4" height="4"/>
    <rect x="226" y="374" width="4" height="4"/><rect x="282" y="374" width="4" height="4"/><rect x="336" y="386" width="4" height="4"/><rect x="392" y="404" width="4" height="4"/>
    <rect x="438" y="372" width="4" height="4"/><rect x="472" y="390" width="4" height="4"/>
  </g>
  <path d="M188 468 C214 386 238 318 256 250 C276 318 312 386 352 468Z" fill="url(#avenue)" opacity="0.86"/>
  <path d="M250 262 C224 328 204 388 188 468M264 262 C292 330 322 390 352 468" stroke="#0A1628" stroke-width="3" opacity="0.55"/>
  <path d="M256 296 L260 468" stroke="#FFD27F" stroke-width="4" stroke-dasharray="10 14" opacity="0.74"/>
  <rect x="0" y="468" width="512" height="44" fill="#020610" opacity="0.9"/>
  <g transform="rotate(-8 256 210)">
  <path d="M250 190 Q158 134 72 194 Q126 198 192 218 Q150 222 112 254 Q180 244 226 250 Q190 258 166 282 Q222 264 260 260Z" fill="url(#wingL)"/>
  <path d="M260 190 Q350 136 438 190 Q386 198 320 218 Q366 222 404 254 Q336 244 290 250 Q326 258 350 282 Q294 264 252 260Z" fill="url(#wingR)"/>
  <path d="M254 198 Q198 186 142 198 Q196 202 226 214 Q196 218 170 232 Q226 224 254 228Z" fill="#FBF7E6" opacity="0.62"/>
  <path d="M258 198 Q314 186 370 198 Q314 202 286 214 Q318 218 344 232 Q286 224 258 228Z" fill="#FBF7E6" opacity="0.62"/>
  <path d="M180 218 C132 228 100 244 78 270M334 216 C386 226 420 242 448 268" stroke="#FBF7E6" stroke-width="4" opacity="0.3" fill="none"/>
  <circle cx="86" cy="202" r="6" fill="#88D7E8" opacity="0.9"/><circle cx="426" cy="202" r="6" fill="#88D7E8" opacity="0.9"/>
  <path d="M232 196 L282 196 L302 286 L310 312 L208 312 L214 286Z" fill="#FBF7E6"/>
  <path d="M232 196 L240 310M256 196 L258 312M282 196 L274 310" stroke="#8CB6CC" stroke-width="1.5" opacity="0.44" fill="none"/>
  <circle cx="256" cy="172" r="20" fill="#FBF7E6"/>
  <path d="M240 168 Q256 158 272 168 Q272 162 256 156 Q240 162 240 168Z" fill="#8CB6CC" opacity="0.18"/>
  <ellipse cx="256" cy="142" rx="40" ry="11" fill="none" stroke="#FFD27F" stroke-width="4" opacity="0.96"/>
  <ellipse cx="256" cy="142" rx="46" ry="13" fill="none" stroke="#FFD27F" stroke-width="2" opacity="0.55"/>
  <ellipse cx="256" cy="142" rx="34" ry="9" fill="none" stroke="#C99841" stroke-width="1.5" opacity="0.75"/>
  <ellipse cx="246" cy="138" rx="8" ry="2" fill="#FBF7E6" opacity="0.9"/>
  </g>
  <circle cx="256" cy="220" r="108" fill="none" stroke="#FFE7A8" stroke-width="1" opacity="0.22"/>
</svg>